Jump_normalized_Precision Landing17_filtered_grf
version=1
nRows=30
nColumns=37
inDegrees=yes
endheader
time		1_ground_force_vx		1_ground_force_vy		1_ground_force_vz		1_ground_force_px		1_ground_force_py		1_ground_force_pz		1_ground_torque_x		1_ground_torque_y		1_ground_torque_z		2_ground_force_vx		2_ground_force_vy		2_ground_force_vz		2_ground_force_px		2_ground_force_py		2_ground_force_pz		2_ground_torque_x		2_ground_torque_y		2_ground_torque_z		3_ground_force_vx		3_ground_force_vy		3_ground_force_vz		3_ground_force_px		3_ground_force_py		3_ground_force_pz		3_ground_torque_x		3_ground_torque_y		3_ground_torque_z		4_ground_force_vx		4_ground_force_vy		4_ground_force_vz		4_ground_force_px		4_ground_force_py		4_ground_force_pz		4_ground_torque_x		4_ground_torque_y		4_ground_torque_z		
0.324500		-0.000000		-0.000000		-0.000000		0.080263		0.000000		0.311382		-0.000000		-0.000000		0.000000		0.000000		-0.000000		0.000000		-0.141987		0.000000		0.397500		0.000000		-0.000000		-0.000000		-31.694355		612.120678		109.269811		0.353453		1.253816		1.891355		1.278873		-24.699173		-4.409055		5.110531		599.464667		111.245641		-0.289871		1.263935		1.902585		7.438189		18.826020		88.273607		
0.328263		-0.000000		-0.000000		-0.000000		0.080263		0.000000		0.311382		-0.000000		-0.000000		0.000000		-0.000000		-0.000000		-0.000000		-0.141987		0.000000		0.397500		-0.000000		-0.000000		-0.000000		-31.925565		612.383801		108.143555		0.353482		1.253802		1.891350		1.288147		-24.708728		-4.363423		6.130969		603.575224		111.539648		-0.289901		1.263925		1.902643		7.532432		18.991323		88.731912		
0.332025		-0.000000		-0.000000		-0.000000		0.080263		0.000000		0.311382		-0.000000		-0.000000		0.000000		-0.000000		-0.000000		-0.000000		-0.141987		0.000000		0.397500		-0.000000		0.000000		-0.000000		-32.135148		612.350079		106.988530		0.353511		1.253799		1.891354		1.297032		-24.715545		-4.318249		7.189294		607.420435		111.753679		-0.289927		1.263910		1.902704		0.408124		34.482274		6.344075		
0.335788		0.000000		-0.000000		-0.000000		0.080263		0.000000		0.311382		-0.000000		-0.000000		0.000000		-0.000000		-0.000000		-0.000000		-0.141987		0.000000		0.397500		-0.000000		0.000000		-0.000000		-32.448078		611.905211		105.898518		0.353517		1.253805		1.891374		1.310609		-24.715439		-4.277343		8.279104		611.040285		111.876048		-0.289946		1.263894		1.902761		0.469783		34.672407		6.348210		
0.339551		0.000000		0.000000		0.000000		0.080263		0.000000		0.311382		0.000000		-0.000000		-0.000000		-0.000000		0.000000		-0.000000		-0.141987		0.000000		0.397500		-0.000000		0.000000		0.000000		-32.900081		610.948318		104.865340		0.353489		1.253816		1.891411		1.330397		-24.705222		-4.240492		9.403934		614.496784		111.938655		-0.289956		1.263881		1.902810		0.533518		34.862531		6.350667		
0.343313		0.000000		0.000000		0.000000		0.080263		0.000000		0.311382		0.000000		0.000000		-0.000000		-0.000000		0.000000		0.000000		-0.141987		0.000000		0.397500		0.000000		0.000000		0.000000		-33.415507		609.417513		103.808281		0.353430		1.253830		1.891456		1.353474		-24.684068		-4.204688		10.581266		617.813213		111.962015		-0.289958		1.263873		1.902845		0.600302		35.050112		6.351889		
0.347076		0.000000		0.000000		0.000000		0.080263		0.000000		0.311382		0.000000		0.000000		-0.000000		0.000000		0.000000		0.000000		-0.141987		0.000000		0.397500		0.000000		-0.000000		0.000000		-33.803275		607.310886		102.617758		0.353362		1.253845		1.891499		1.372231		-24.653549		-4.165727		11.827961		620.932974		111.938102		-0.289955		1.263870		1.902867		0.671036		35.227392		6.350585		
0.350838		-0.000000		0.000000		0.000000		0.080263		0.000000		0.311382		0.000000		0.000000		-0.000000		0.000000		0.000000		0.000000		-0.141987		0.000000		0.397500		0.000000		-0.000000		0.000000		-33.828346		604.654359		101.214225		0.353310		1.253864		1.891537		1.377182		-24.616012		-4.120520		13.123196		623.713068		111.789121		-0.289952		1.263867		1.902879		0.744472		35.382941		6.341743		
0.354601		-0.000000		-0.000000		0.000000		0.080263		0.000000		0.311382		0.000000		0.000000		0.000000		0.000000		-0.000000		0.000000		-0.141987		0.000000		0.397500		0.000000		-0.000000		-0.000000		-33.363284		601.468304		99.630938		0.353284		1.253891		1.891577		1.363019		-24.572308		-4.070309		14.383818		625.953095		111.403342		-0.289952		1.263863		1.902885		0.815892		35.505905		6.319126		
0.358364		-0.000000		-0.000000		-0.000000		0.080263		0.000000		0.311382		-0.000000		-0.000000		0.000000		0.000000		-0.000000		0.000000		-0.141987		0.000000		0.397500		0.000000		-0.000000		-0.000000		-32.397849		597.744803		97.975577		0.353273		1.253928		1.891638		1.328984		-24.519948		-4.019033		15.480374		627.445423		110.659033		-0.289951		1.263858		1.902895		0.878090		35.590438		6.276886		
0.362126		-0.000000		-0.000000		-0.000000		0.080263		0.000000		0.311382		-0.000000		-0.000000		0.000000		-0.000000		-0.000000		-0.000000		-0.141987		0.000000		0.397500		-0.000000		0.000000		-0.000000		-31.057446		593.465162		96.313317		0.353257		1.253970		1.891729		1.279703		-24.453372		-3.968532		16.291776		628.033183		109.448646		-0.289945		1.263853		1.902916		0.924481		35.637917		6.210694		
0.365889		0.000000		-0.000000		-0.000000		0.080263		0.000000		0.311382		-0.000000		-0.000000		0.000000		-0.000000		-0.000000		-0.000000		-0.141987		0.000000		0.397500		-0.000000		0.000000		-0.000000		-29.502025		588.636215		94.614584		0.353225		1.254006		1.891841		1.221286		-24.367594		-3.916731		16.756062		627.635160		107.691296		-0.289929		1.263850		1.902949		0.951869		35.654337		6.117664		
0.369652		0.000000		-0.000000		-0.000000		0.080263		0.000000		0.311382		-0.000000		-0.000000		0.000000		-0.000000		-0.000000		-0.000000		-0.141987		0.000000		0.397500		-0.000000		0.000000		-0.000000		-27.869291		583.344588		92.749744		0.353186		1.254028		1.891944		1.159186		-24.263461		-3.857805		16.897574		626.249103		105.345924		-0.289902		1.263852		1.902991		0.961791		35.645385		5.996168		
0.373414		0.000000		0.000000		0.000000		0.080263		0.000000		0.311382		0.000000		0.000000		-0.000000		-0.000000		0.000000		-0.000000		-0.141987		0.000000		0.397500		-0.000000		0.000000		0.000000		-26.260781		577.775792		90.608786		0.353164		1.254028		1.892003		1.097644		-24.149785		-3.787251		16.801847		623.950982		102.428159		-0.289869		1.263860		1.903036		0.959007		35.613521		5.846335		
0.377177		0.000000		0.000000		0.000000		0.080263		0.000000		0.311382		0.000000		0.000000		-0.000000		0.000000		0.000000		0.000000		-0.141987		0.000000		0.397500		0.000000		0.000000		0.000000		-24.717297		572.180604		88.224329		0.353164		1.254015		1.892016		1.038501		-24.040292		-3.706763		16.558393		620.883560		99.056775		-0.289834		1.263873		1.903080		0.948320		35.558784		5.673104		
0.380939		0.000000		0.000000		0.000000		0.080263		0.000000		0.311382		0.000000		0.000000		-0.000000		0.000000		0.000000		0.000000		-0.141987		0.000000		0.397500		0.000000		-0.000000		0.000000		-23.271886		566.806229		85.678699		0.353184		1.253996		1.891990		0.983227		-23.947315		-3.619887		16.230237		617.248267		95.431663		-0.289800		1.263887		1.903118		0.933008		35.483011		5.485965		
0.384702		-0.000000		0.000000		0.000000		0.080263		0.000000		0.311382		0.000000		0.000000		-0.000000		0.000000		0.000000		0.000000		-0.141987		0.000000		0.397500		0.000000		-0.000000		0.000000		-21.953116		561.796909		83.072676		0.353207		1.253979		1.891954		0.932979		-23.875674		-3.530484		15.857539		613.252854		91.767413		-0.289772		1.263896		1.903153		0.915168		35.391980		5.296068		
0.388465		-0.000000		-0.000000		-0.000000		0.080263		0.000000		0.311382		-0.000000		0.000000		0.000000		0.000000		-0.000000		0.000000		-0.141987		0.000000		0.397500		0.000000		-0.000000		-0.000000		-20.781736		557.159539		80.428155		0.353215		1.253968		1.891935		0.888534		-23.821670		-3.438750		15.470014		609.051949		88.228923		-0.289747		1.263895		1.903186		0.896457		35.293374		5.112693		
0.392227		-0.000000		-0.000000		-0.000000		0.080263		0.000000		0.311382		-0.000000		-0.000000		0.000000		0.000000		-0.000000		-0.000000		-0.141987		0.000000		0.397500		-0.000000		-0.000000		-0.000000		-19.779437		552.821749		77.682575		0.353204		1.253965		1.891945		0.850744		-23.777730		-3.341247		15.099349		604.693929		84.837209		-0.289723		1.263883		1.903219		0.878770		35.192728		4.937458		
0.395990		-0.000000		-0.000000		-0.000000		0.080263		0.000000		0.311382		-0.000000		-0.000000		0.000000		-0.000000		-0.000000		-0.000000		-0.141987		0.000000		0.397500		-0.000000		0.000000		-0.000000		-18.968443		548.700204		74.799961		0.353176		1.253971		1.891989		0.820575		-23.736758		-3.235844		14.770579		600.115062		81.494324		-0.289698		1.263864		1.903257		0.863675		35.090323		4.765189		
0.399753		0.000000		-0.000000		-0.000000		0.080263		0.000000		0.311382		-0.000000		-0.000000		0.000000		-0.000000		-0.000000		-0.000000		-0.141987		0.000000		0.397500		-0.000000		0.000000		-0.000000		-18.391192		544.768952		71.740028		0.353142		1.253986		1.892049		0.799933		-23.694989		-3.120365		14.484045		595.189836		78.019498		-0.289675		1.263846		1.903298		0.851256		34.980477		4.585356		
0.403515		0.000000		0.000000		-0.000000		0.080263		0.000000		0.311382		0.000000		-0.000000		-0.000000		-0.000000		0.000000		-0.000000		-0.141987		0.000000		0.397500		-0.000000		0.000000		0.000000		-18.087109		541.046161		68.536697		0.353118		1.254007		1.892106		0.790668		-23.651529		-2.996043		14.189279		589.833236		74.219084		-0.289655		1.263839		1.903346		0.838473		34.854464		4.385758		
0.407278		0.000000		0.000000		0.000000		0.080263		0.000000		0.311382		0.000000		0.000000		-0.000000		-0.000000		0.000000		0.000000		-0.141987		0.000000		0.397500		0.000000		0.000000		0.000000		-18.062987		537.568825		65.266297		0.353105		1.254028		1.892148		0.793220		-23.606850		-2.866108		13.801017		584.054578		70.028685		-0.289639		1.263846		1.903399		0.820052		34.704366		4.161080		
0.411040		0.000000		0.000000		0.000000		0.080263		0.000000		0.311382		0.000000		0.000000		-0.000000		0.000000		0.000000		0.000000		-0.141987		0.000000		0.397500		0.000000		-0.000000		0.000000		-18.261395		534.342548		62.009617		0.353101		1.254044		1.892171		0.805206		-23.560949		-2.734210		13.256675		577.988069		65.515851		-0.289628		1.263868		1.903453		0.791937		34.528254		3.913830		
0.414803		-0.000000		0.000000		0.000000		0.080263		0.000000		0.311382		0.000000		0.000000		-0.000000		0.000000		0.000000		0.000000		-0.141987		0.000000		0.397500		0.000000		-0.000000		0.000000		-18.576673		531.312944		58.843834		0.353097		1.254050		1.892190		0.822074		-23.512207		-2.604016		12.548166		571.826939		60.931752		-0.289620		1.263895		1.903505		0.753371		34.331570		3.658240		
0.418566		-0.000000		0.000000		0.000000		0.080263		0.000000		0.311382		0.000000		0.000000		-0.000000		0.000000		0.000000		0.000000		-0.141987		0.000000		0.397500		0.000000		-0.000000		0.000000		-18.895137		528.359971		55.787412		0.353085		1.254044		1.892217		0.838875		-23.457246		-2.476756		11.734337		565.754728		56.619565		-0.289620		1.263921		1.903556		0.707822		34.126667		3.415324		
0.422328		-0.000000		-0.000000		-0.000000		0.080263		0.000000		0.311382		-0.000000		-0.000000		0.000000		0.000000		-0.000000		0.000000		-0.141987		0.000000		0.397500		0.000000		-0.000000		-0.000000		-19.145826		525.332530		52.834522		0.353066		1.254031		1.892258		0.852521		-23.391876		-2.352601		10.901234		559.870904		52.843640		-0.289628		1.263940		1.903607		0.660582		33.926554		3.202168		
0.426091		-0.000000		-0.000000		-0.000000		0.080263		0.000000		0.311382		-0.000000		-0.000000		0.000000		-0.000000		-0.000000		-0.000000		-0.141987		0.000000		0.397500		-0.000000		0.000000		-0.000000		-19.307688		522.108806		49.989294		0.353046		1.254021		1.892318		0.862166		-23.314257		-2.232222		10.114727		554.143807		49.719958		-0.289640		1.263948		1.903662		0.615784		33.736266		3.026949		
0.429854		-0.000000		-0.000000		-0.000000		0.080263		0.000000		0.311382		-0.000000		-0.000000		0.000000		-0.000000		-0.000000		-0.000000		-0.141987		0.000000		0.397500		-0.000000		0.000000		-0.000000		-19.383287		518.642869		47.234554		0.353032		1.254022		1.892392		0.868052		-23.226651		-2.115328		9.395842		548.450225		47.022229		-0.289653		1.263948		1.903726		0.574751		33.549159		2.876387		
0.433616		0.000000		-0.000000		-0.000000		0.080263		0.000000		0.311382		-0.000000		-0.000000		0.000000		-0.000000		-0.000000		-0.000000		-0.141987		0.000000		0.397500		-0.000000		0.000000		-0.000000		-19.368820		514.954066		44.538284		0.353028		1.254044		1.892475		0.870093		-23.132941		-2.000763		8.706356		542.633919		44.384689		-0.289660		1.263945		1.903795		0.535097		33.350566		2.727904		
